<svg width="80" height="80" viewBox="0 0 80 80" fill="none" xmlns="http://www.w3.org/2000/svg">
  <path fill-rule="evenodd" clip-rule="evenodd" d="M70.777 14.7999C70.777 14.7019 70.6806 14.6076 70.6806 14.6076L70.588 14.5096C70.588 14.4488 70.5508 14.4257 70.5005 14.3944C70.4697 14.3753 70.434 14.3531 70.3989 14.3174L70.2061 14.1213L55.3066 3.50582C54.832 3.12131 54.072 3.12131 53.5975 3.50582L39.3614 13.3483L25.6036 3.41125C25.129 3.02674 24.369 3.02674 23.8945 3.41125L8.99495 14.0268C8.94628 14.0268 8.92219 14.0517 8.89833 14.0765C8.87493 14.1007 8.85177 14.1248 8.80588 14.1248C8.80588 14.1248 8.70949 14.1248 8.70949 14.2228C8.66218 14.2709 8.61577 14.3417 8.56938 14.4124C8.52123 14.4859 8.47311 14.5593 8.42402 14.6073V14.7053C8.32764 14.8976 8.32764 15.0898 8.32764 15.2858L8.32764 63.8287C8.32764 64.3112 8.6131 64.7937 8.99125 65.084L23.8908 75.6995H23.9872L24.0836 75.7975H24.1799C24.369 75.8955 24.5581 75.9898 24.8436 75.9898C25.0367 75.9898 25.1416 75.9449 25.2777 75.8867C25.3427 75.8588 25.4149 75.828 25.5072 75.7975H25.6036C25.6036 75.7975 25.6999 75.7975 25.6999 75.6995H25.7963L39.8398 65.6572L53.887 75.6918H53.9797L54.0761 75.7898H54.1725C54.3616 75.8878 54.5507 75.982 54.8361 75.982C54.971 75.982 55.1058 75.9322 55.2756 75.8694L55.2757 75.8694C55.344 75.8441 55.4179 75.8168 55.4997 75.7898H55.5961C55.5961 75.7898 55.6925 75.7898 55.6925 75.6918H55.7889L70.6884 65.0763L70.7848 64.9783L70.777 14.7999ZM11.3672 18.2717L22.0926 25.894L11.3672 33.5164L11.3672 18.2717ZM11.3672 63.0528L23.2306 71.4479L23.2306 47.8989L18.8633 44.8115L11.3672 39.5037L11.3672 63.0528ZM53.0295 71.546L41.166 63.1508V39.5033L53.0295 47.9965L53.0295 71.546ZM66.6981 36.5138L53.5999 27.1537H53.5993C53.2175 26.8634 52.932 26.3809 52.932 25.8983C52.932 25.4158 53.2175 24.9333 53.5956 24.643L66.6938 15.2828L54.4527 6.59738L40.2165 16.4399C39.742 16.8244 38.982 16.8244 38.5074 16.4399L24.7459 6.59352L12.5047 15.2789L25.6029 24.6391C25.981 24.9294 26.2665 25.4119 26.2665 25.8945C26.2665 26.377 25.981 26.8595 25.6029 27.1498L12.5047 36.51L24.0824 44.8109L24.7461 45.2934L38.6007 35.2589H38.697C38.697 35.1609 38.7934 35.1609 38.7934 35.1609H38.8787C38.8787 35.0629 38.9751 35.0629 38.9751 35.0629H39.0715H39.2606H39.4496H39.546H39.6424H39.8315H40.0206H40.1169C40.1169 35.1609 40.2133 35.1609 40.2133 35.1609H40.3097C40.3097 35.2589 40.4061 35.2589 40.4061 35.2589H40.5025L54.4567 45.2973L55.1204 44.8148L66.6981 36.5138Z" fill="#FBFBFC" />
</svg>